<?xml version="1.0" encoding="UTF-8" standalone="no"?>
<!-- Created with Inkscape (http://www.inkscape.org/) -->

<svg
   width="1920"
   height="1920"
   viewBox="0 0 507.99999 508"
   version="1.1"
   id="svg1"
   xml:space="preserve"
   inkscape:version="1.3.2 (091e20e, 2023-11-25, custom)"
   sodipodi:docname="favicon.svg"
   inkscape:export-filename="newbrand.png"
   inkscape:export-xdpi="96"
   inkscape:export-ydpi="96"
   xmlns:inkscape="http://www.inkscape.org/namespaces/inkscape"
   xmlns:sodipodi="http://sodipodi.sourceforge.net/DTD/sodipodi-0.dtd"
   xmlns:xlink="http://www.w3.org/1999/xlink"
   xmlns="http://www.w3.org/2000/svg"
   xmlns:svg="http://www.w3.org/2000/svg"><sodipodi:namedview
     id="namedview1"
     pagecolor="#505050"
     bordercolor="#eeeeee"
     borderopacity="1"
     inkscape:showpageshadow="0"
     inkscape:pageopacity="0"
     inkscape:pagecheckerboard="0"
     inkscape:deskcolor="#505050"
     inkscape:document-units="mm"
     inkscape:zoom="0.17304819"
     inkscape:cx="1118.1856"
     inkscape:cy="996.83215"
     inkscape:window-width="1920"
     inkscape:window-height="991"
     inkscape:window-x="-9"
     inkscape:window-y="-9"
     inkscape:window-maximized="1"
     inkscape:current-layer="layer1" /><defs
     id="defs1"><linearGradient
       id="linearGradient2719"
       inkscape:collect="always"><stop
         style="stop-color:#7f45eb;stop-opacity:1;"
         offset="0.265625"
         id="stop2720" /><stop
         style="stop-color:#45dd92;stop-opacity:1;"
         offset="0.91493058"
         id="stop2721" /></linearGradient><radialGradient
       inkscape:collect="always"
       xlink:href="#linearGradient2719"
       id="radialGradient2721"
       cx="146.37816"
       cy="91.337517"
       fx="146.37816"
       fy="91.337517"
       r="247.75032"
       gradientUnits="userSpaceOnUse"
       gradientTransform="matrix(0.39394858,1.501165,-1.9369613,0.508314,345.73051,-142.12728)" /></defs><g
     inkscape:label="Camada 1"
     inkscape:groupmode="layer"
     id="layer1"><rect
       style="opacity:1;fill:#252430;fill-opacity:0.80080485;stroke:url(#radialGradient2721);stroke-width:33.1536;stroke-dasharray:none;stroke-opacity:1"
       id="rect3"
       width="462.34705"
       height="462.34705"
       x="22.826479"
       y="22.826479"
       ry="231.17352" /><path
       id="path3"
       style="fill:#ebe8f3;fill-opacity:1;stroke-width:54.477"
       d="m 254.00241,82.45468 c 95.76066,0.0023 173.38872,77.63224 173.388,173.39288 -0.15563,70.32316 -42.77079,133.58782 -107.88188,160.15678 -20.57358,-78.3571 -108.80935,-51.55789 -79.21268,-113.57596 -2.76818,7.91273 3.59423,29.05908 25.79165,31.32235 16.34077,1.666 35.44363,-2.08917 53.843,-3.18661 16.38483,-0.97771 38.7951,7.14244 53.55049,-0.0473 5.89547,-2.87294 10.66479,-7.81486 14.16247,-13.67735 0.40265,-0.67483 0.78453,-1.3584 1.15432,-2.05649 0.16803,-0.31634 0.33611,-0.64015 0.49472,-0.96037 2.74437,-5.49294 4.11253,-10.42742 4.67078,-16.2688 0.30214,-3.16851 -0.15707,-7.35903 -4.2972,-8.52665 -4.83707,-1.36414 -23.00751,-9.84431 -40.97419,-20.97058 -5.96607,-3.69454 -11.67806,-8.34574 -15.53021,-14.21092 -13.76573,-20.96015 -34.31115,-32.69647 -73.69795,-30.40077 60.6849,-6.5811 95.69278,-59.75977 72.44179,-100.24287 3.14475,24.94203 -16.36588,63.11242 -53.46319,63.11022 20.37783,-13.99133 26.21529,-40.85194 10.59761,-64.1627 -18.85984,84.96277 -98.21331,40.58667 -84.6028,-7.44965 7.3473,-25.930933 31.10591,-32.231196 49.56527,-32.248876 z m -80.00804,19.59948 c -7.88897,16.87253 -8.67945,34.02771 -6.13056,47.55567 -12.31084,-6.18969 -24.18497,-11.82246 -34.85811,-17.90182 12.13965,-11.83538 25.94943,-21.82634 40.98867,-29.65385 z M 115.293,151.83611 c 9.63273,6.83697 20.85067,12.85784 33.64055,17.63029 63.16324,23.5685 69.7807,48.91747 74.77481,65.89895 -11.69689,-18.16249 -48.27985,-44.41078 -114.23755,-27.54905 37.80253,10.07352 42.70918,68.17029 101.38952,54.66148 -42.54169,16.57096 -66.80682,58.26617 -69.10009,99.06428 -0.38482,6.85433 -0.27779,16.61808 1.57142,27.50521 C 103.67622,356.1687 80.692935,307.36015 80.609579,255.84756 80.614423,218.33827 92.785912,181.84249 115.293,151.83611 Z M 275.52268,256.1034 c 25.02838,-1.65955 36.66981,-1.23812 44.62605,18.76644 -20.55386,1.84223 -35.99495,0.72835 -44.62605,-18.76644 z"
       sodipodi:nodetypes="ccccsccscccsscccccsccccccccccsccccccc" /></g></svg>
