<?xml version="1.0" encoding="UTF-8" standalone="no"?>
<!-- Created with Inkscape (http://www.inkscape.org/) -->

<svg
   width="1920"
   height="1920"
   viewBox="0 0 507.99999 508"
   version="1.1"
   id="svg1"
   xml:space="preserve"
   inkscape:version="1.3.2 (091e20e, 2023-11-25, custom)"
   sodipodi:docname="favicon.svg"
   inkscape:export-filename="newbrand.png"
   inkscape:export-xdpi="96"
   inkscape:export-ydpi="96"
   xmlns:inkscape="http://www.inkscape.org/namespaces/inkscape"
   xmlns:sodipodi="http://sodipodi.sourceforge.net/DTD/sodipodi-0.dtd"
   xmlns="http://www.w3.org/2000/svg"
   xmlns:svg="http://www.w3.org/2000/svg"><sodipodi:namedview
     id="namedview1"
     pagecolor="#505050"
     bordercolor="#eeeeee"
     borderopacity="1"
     inkscape:showpageshadow="0"
     inkscape:pageopacity="0"
     inkscape:pagecheckerboard="0"
     inkscape:deskcolor="#505050"
     inkscape:document-units="mm"
     inkscape:zoom="0.34609638"
     inkscape:cx="914.48514"
     inkscape:cy="859.58714"
     inkscape:window-width="1920"
     inkscape:window-height="991"
     inkscape:window-x="-9"
     inkscape:window-y="-9"
     inkscape:window-maximized="1"
     inkscape:current-layer="layer1" /><defs
     id="defs1" /><g
     inkscape:label="Camada 1"
     inkscape:groupmode="layer"
     id="layer1"><rect
       style="opacity:0.836528;fill:#252430;fill-opacity:1;stroke-width:3.78286"
       id="rect3"
       width="453.94318"
       height="453.94318"
       x="27.028406"
       y="27.028406"
       ry="226.97159" /><path
       id="path3"
       style="fill:#ebe8f3;fill-opacity:1;stroke-width:50.677"
       d="m 254.00225,94.273362 c 89.08085,0.0021 161.29395,72.216988 161.29328,161.297838 -0.14477,65.41775 -39.7873,124.26937 -100.35656,148.985 -19.13847,-72.89129 -101.21933,-47.96145 -73.68718,-105.65345 -2.57509,7.36078 3.3435,27.03206 23.99255,29.13746 15.2009,1.54979 32.97125,-1.94344 50.08716,-2.96433 15.24191,-0.9095 36.08895,6.64422 49.81507,-0.0439 5.48423,-2.67254 9.92087,-7.26973 13.17456,-12.72329 0.37457,-0.62776 0.72981,-1.26364 1.0738,-1.91304 0.15631,-0.29427 0.31267,-0.59549 0.46022,-0.89337 2.55293,-5.10978 3.82566,-9.70006 4.34497,-15.13398 0.28106,-2.94749 -0.14612,-6.84569 -3.99746,-7.93187 -4.49965,-1.26898 -21.40261,-9.15761 -38.11602,-19.50777 -5.54991,-3.43682 -10.86345,-7.76359 -14.44689,-13.21963 -12.80551,-19.49807 -31.91778,-30.41573 -68.55715,-28.28016 56.45182,-6.12203 89.01771,-55.59122 67.38861,-93.25041 2.92538,23.20219 -15.22428,58.71001 -49.73385,58.70795 18.95636,-13.01537 24.38663,-38.00231 9.85836,-59.68702 -17.54427,79.03619 -91.36242,37.75555 -78.70131,-6.92999 6.83478,-24.12212 28.93611,-29.982908 46.10784,-29.999354 z m -74.42707,18.232318 c -7.33868,15.69558 -8.07401,31.6541 -5.70293,44.23842 -11.45209,-5.75794 -22.49794,-10.99779 -32.42658,-16.65308 11.29286,-11.0098 24.13933,-20.30384 38.12951,-27.58534 z m -54.60665,46.30939 c 8.96081,6.36005 19.39623,11.96095 31.29395,16.40049 58.75727,21.92448 64.91313,45.50523 69.55888,61.30216 -10.88098,-16.89556 -44.91208,-41.31289 -106.26889,-25.62735 35.16561,9.37083 39.72999,63.41504 94.31707,50.84855 -39.57418,15.41504 -62.14669,54.20179 -64.27999,92.15403 -0.35798,6.3762 -0.25842,15.45888 1.4618,25.58658 C 114.16208,348.89441 92.782,303.49051 92.704459,255.5712 c 0.0045,-34.89284 11.326971,-68.84285 32.264071,-96.75613 z m 149.05283,96.99411 c 23.28252,-1.54378 34.1119,-1.15175 41.51315,17.45739 -19.12011,1.71373 -33.48411,0.67754 -41.51315,-17.45739 z"
       sodipodi:nodetypes="ccccsccscccsscccccsccccccccccsccccccc" /></g></svg>
