<?xml version="1.0" encoding="UTF-8" standalone="no"?>
<!-- Created with Inkscape (http://www.inkscape.org/) -->

<svg
   width="1920"
   height="1920"
   viewBox="0 0 507.99999 508"
   version="1.1"
   id="svg1"
   xml:space="preserve"
   inkscape:version="1.3.2 (091e20e, 2023-11-25, custom)"
   sodipodi:docname="transicon.svg"
   inkscape:export-filename="newbrand.png"
   inkscape:export-xdpi="96"
   inkscape:export-ydpi="96"
   xmlns:inkscape="http://www.inkscape.org/namespaces/inkscape"
   xmlns:sodipodi="http://sodipodi.sourceforge.net/DTD/sodipodi-0.dtd"
   xmlns="http://www.w3.org/2000/svg"
   xmlns:svg="http://www.w3.org/2000/svg"><sodipodi:namedview
     id="namedview1"
     pagecolor="#505050"
     bordercolor="#eeeeee"
     borderopacity="1"
     inkscape:showpageshadow="0"
     inkscape:pageopacity="0"
     inkscape:pagecheckerboard="0"
     inkscape:deskcolor="#505050"
     inkscape:document-units="mm"
     inkscape:zoom="0.2447271"
     inkscape:cx="590.45361"
     inkscape:cy="819.27992"
     inkscape:window-width="1920"
     inkscape:window-height="991"
     inkscape:window-x="-9"
     inkscape:window-y="-9"
     inkscape:window-maximized="1"
     inkscape:current-layer="layer1" /><defs
     id="defs1" /><g
     inkscape:label="Camada 1"
     inkscape:groupmode="layer"
     id="layer1"><path
       id="path3"
       style="fill:#fbf0ff;fill-opacity:0.9254902;stroke-width:78.5691"
       d="M 254.00349,13.473179 C 392.11335,13.476365 504.07166,125.43752 504.07062,263.54738 503.84617,364.97027 442.38488,456.21309 348.47903,494.53191 318.80699,381.52214 191.54982,420.17305 234.23534,330.72809 c -3.99239,11.41206 5.18371,41.91017 37.19775,45.17436 23.56728,2.40277 51.11821,-3.01309 77.65452,-4.59586 23.63086,-1.41009 55.95187,10.30111 77.23267,-0.068 8.50269,-4.14346 15.3812,-11.27088 20.42567,-19.72602 0.58074,-0.97328 1.13149,-1.95914 1.66482,-2.96596 0.24234,-0.45622 0.48476,-0.92323 0.71351,-1.38506 3.95804,-7.92214 5.93126,-15.03885 6.73639,-23.46354 0.43575,-4.56976 -0.22654,-10.61347 -6.19761,-12.29748 -6.97621,-1.9674 -33.18235,-14.19784 -59.09461,-30.2446 -8.60452,-5.32841 -16.84256,-12.03658 -22.39828,-20.49556 C 348.31666,230.43081 318.68524,213.5042 261.88,216.81516 c 87.52221,-9.49152 138.01196,-86.18795 104.47847,-144.574298 4.53547,35.972388 -23.60353,91.023278 -77.10674,91.020098 29.3897,-20.17888 37.80873,-58.91832 15.28428,-92.538035 C 277.33559,193.25964 162.88883,129.25864 182.51846,59.978726 193.11501,22.580087 227.38065,13.493583 254.00349,13.468086 Z M 138.61268,41.740353 c -11.3778,24.33423 -12.51785,49.076131 -8.84175,68.586697 C 112.01574,101.40001 94.890392,93.276223 79.49715,84.508327 97.005455,67.438865 116.92247,53.029499 138.61268,41.740353 Z M 53.951185,113.53786 c 13.892732,9.86054 30.071682,18.54411 48.517765,25.42713 91.09654,33.99145 100.64052,70.55074 107.84323,95.04211 -16.86974,-26.19467 -69.63114,-64.05099 -164.757975,-39.73233 54.520315,14.52843 61.596875,98.3179 146.228015,78.83497 -61.35532,23.89928 -96.351463,84.03379 -99.658893,142.87447 -0.555022,9.88559 -0.40066,23.96726 2.26635,39.66913 C 37.196999,408.23454 4.0495916,337.84089 3.9293741,263.54738 3.9364092,209.44995 21.490563,156.81427 53.951185,113.53786 Z M 285.04087,263.91635 c 36.09694,-2.39346 52.88668,-1.78567 64.36148,27.06571 -29.64359,2.65696 -51.91335,1.05046 -64.36148,-27.06571 z"
       sodipodi:nodetypes="ccccsccscccsscccccsccccccccccsccccccc" /></g></svg>
